<svg width="16" height="16" viewBox="0 0 16 16" fill="none" xmlns="http://www.w3.org/2000/svg">
<path d="M12.6667 2.66669H10C9.63184 2.66669 9.33337 2.96517 9.33337 3.33335V6.00002C9.33337 6.36821 9.63184 6.66669 10 6.66669H12.6667C13.0349 6.66669 13.3334 6.36821 13.3334 6.00002V3.33335C13.3334 2.96517 13.0349 2.66669 12.6667 2.66669Z" stroke="black" stroke-miterlimit="10" stroke-linecap="round" stroke-linejoin="round"/>
<path d="M12.6667 9.33331H10C9.63184 9.33331 9.33337 9.63178 9.33337 9.99998V12.6666C9.33337 13.0348 9.63184 13.3333 10 13.3333H12.6667C13.0349 13.3333 13.3334 13.0348 13.3334 12.6666V9.99998C13.3334 9.63178 13.0349 9.33331 12.6667 9.33331Z" stroke="black" stroke-miterlimit="10" stroke-linecap="round" stroke-linejoin="round"/>
<path d="M5.99996 2.66669H3.33329C2.96511 2.66669 2.66663 2.96517 2.66663 3.33335V6.00002C2.66663 6.36821 2.96511 6.66669 3.33329 6.66669H5.99996C6.36815 6.66669 6.66663 6.36821 6.66663 6.00002V3.33335C6.66663 2.96517 6.36815 2.66669 5.99996 2.66669Z" stroke="black" stroke-miterlimit="10" stroke-linecap="round" stroke-linejoin="round"/>
<path d="M5.99996 9.33331H3.33329C2.96511 9.33331 2.66663 9.63178 2.66663 9.99998V12.6666C2.66663 13.0348 2.96511 13.3333 3.33329 13.3333H5.99996C6.36815 13.3333 6.66663 13.0348 6.66663 12.6666V9.99998C6.66663 9.63178 6.36815 9.33331 5.99996 9.33331Z" stroke="black" stroke-miterlimit="10" stroke-linecap="round" stroke-linejoin="round"/>
</svg>
