<svg width="16" height="16" viewBox="0 0 16 16" fill="none" xmlns="http://www.w3.org/2000/svg">
<path d="M6.85805 2.75986C7.14605 1.55929 8.85398 1.55929 9.14205 2.75986C9.32825 3.53585 10.2175 3.90419 10.8978 3.48713C11.9504 2.84189 13.1582 4.04957 12.5129 5.10219C12.0958 5.78253 12.4642 6.67178 13.2402 6.85798C14.4407 7.14605 14.4407 8.85398 13.2402 9.14198C12.4642 9.32818 12.0958 10.2174 12.5129 10.8978C13.1582 11.9504 11.9504 13.1581 10.8978 12.5128C10.2175 12.0958 9.32825 12.4641 9.14205 13.2401C8.85398 14.4407 7.14605 14.4407 6.85805 13.2401C6.67185 12.4641 5.7826 12.0958 5.10224 12.5128C4.04964 13.1581 2.84194 11.9504 3.4872 10.8978C3.90425 10.2174 3.5359 9.32818 2.75992 9.14198C1.55936 8.85398 1.55936 7.14605 2.75992 6.85798C3.5359 6.67178 3.90425 5.78254 3.4872 5.10219C2.84194 4.04957 4.04964 2.84189 5.10224 3.48713C5.7826 3.90419 6.67185 3.53585 6.85805 2.75986Z" stroke="black"/>
<path d="M10 8C10 8.5304 9.78927 9.03913 9.4142 9.4142C9.03913 9.78927 8.5304 10 8 10C7.4696 10 6.96087 9.78927 6.58579 9.4142C6.21071 9.03913 6 8.5304 6 8C6 7.4696 6.21071 6.96087 6.58579 6.58579C6.96087 6.21071 7.4696 6 8 6C8.5304 6 9.03913 6.21071 9.4142 6.58579C9.78927 6.96087 10 7.4696 10 8Z" stroke="black" stroke-linecap="round" stroke-linejoin="round"/>
</svg>
