<svg width="16" height="16" viewBox="0 0 16 16" fill="none" xmlns="http://www.w3.org/2000/svg">
<path d="M13.3334 4V2.66667C13.3334 2.29848 13.0349 2 12.6667 2L3.33337 2C2.96519 2 2.66671 2.29848 2.66671 2.66667V4C2.66671 4.36819 2.96519 4.66667 3.33337 4.66667H12.6667C13.0349 4.66667 13.3334 4.36819 13.3334 4Z" stroke="black" stroke-linecap="round" stroke-linejoin="round"/>
<path d="M13.3334 13.3333V12C13.3334 11.6318 13.0349 11.3333 12.6667 11.3333H3.33337C2.96519 11.3333 2.66671 11.6318 2.66671 12V13.3333C2.66671 13.7015 2.96519 14 3.33337 14H12.6667C13.0349 14 13.3334 13.7015 13.3334 13.3333Z" stroke="black" stroke-linecap="round" stroke-linejoin="round"/>
<path d="M13.3334 8.66669V7.33335C13.3334 6.96516 13.0349 6.66669 12.6667 6.66669L3.33337 6.66669C2.96519 6.66669 2.66671 6.96516 2.66671 7.33335V8.66669C2.66671 9.03488 2.96519 9.33335 3.33337 9.33335H12.6667C13.0349 9.33335 13.3334 9.03488 13.3334 8.66669Z" stroke="black" stroke-linecap="round" stroke-linejoin="round"/>
</svg>
