<svg width="16" height="16" viewBox="0 0 16 16" fill="none" xmlns="http://www.w3.org/2000/svg">
<path d="M12 13.3333L13.3333 13.3333C13.7015 13.3333 14 13.0348 14 12.6666L14 3.33331C14 2.96512 13.7015 2.66665 13.3333 2.66665L12 2.66665C11.6318 2.66665 11.3333 2.96512 11.3333 3.33331L11.3333 12.6666C11.3333 13.0348 11.6318 13.3333 12 13.3333Z" stroke="black" stroke-linecap="round" stroke-linejoin="round"/>
<path d="M2.66663 13.3333L3.99996 13.3333C4.36815 13.3333 4.66663 13.0348 4.66663 12.6666L4.66663 3.33331C4.66663 2.96512 4.36815 2.66665 3.99996 2.66665L2.66663 2.66665C2.29844 2.66665 1.99996 2.96512 1.99996 3.33331L1.99996 12.6666C1.99996 13.0348 2.29844 13.3333 2.66663 13.3333Z" stroke="black" stroke-linecap="round" stroke-linejoin="round"/>
<path d="M7.33337 13.3333L8.66671 13.3333C9.0349 13.3333 9.33337 13.0348 9.33337 12.6666L9.33337 3.33331C9.33337 2.96512 9.0349 2.66665 8.66671 2.66665L7.33337 2.66665C6.96518 2.66665 6.66671 2.96512 6.66671 3.33331L6.66671 12.6666C6.66671 13.0348 6.96518 13.3333 7.33337 13.3333Z" stroke="black" stroke-linecap="round" stroke-linejoin="round"/>
</svg>
